<?xml version="1.0" encoding="utf-8"?>
<!-- Generator: Adobe Illustrator 19.0.1, SVG Export Plug-In . SVG Version: 6.00 Build 0)  -->
<svg version="1.1" xmlns="http://www.w3.org/2000/svg" xmlns:xlink="http://www.w3.org/1999/xlink" x="0px" y="0px"
	 viewBox="0 0 760 520" enable-background="new 0 0 760 520" xml:space="preserve">
<g id="Слой_3">
	<path stroke="#1A1A1A" stroke-width="6" stroke-miterlimit="10" d="M506.9,312.9l10.6-1.5c2.2-0.1,3-2.9,1.2-4.2L497.7,293
		c-0.4-0.3-0.1-0.8,0.3-0.8c16.5,5.4,32.3,8.1,46.8,6.4c1.5,0.2,2.4-1.6,1.3-2.7L531,280.8c-1-1,0-2.6,1.3-2.2
		c12.8,5.9,24.3,9,33.8,8.3c1.5,0.4,2.6-1.4,1.6-2.6l-10.8-12.5c-0.9-1.1-0.1-2.8,1.4-2.6c13.7,3.9,27,5.5,40,3.8
		c1.3,0.1,1.9-1.5,0.8-2.2l-28.7-19.9c-0.6-0.4-0.3-1.3,0.4-1.3c21.3,7,41.5,9.7,59.8,4.1c1.1,0.1,1.5-1.5,0.4-1.9l-45.7-17.8
		c-0.6-0.2-0.4-1.1,0.2-1.1c27,3.1,52.9,4.1,77.5,2.4c1.2,0,1.5-1.5,0.5-2l-35.6-16.1c-0.6-0.3-0.4-1.2,0.2-1.2
		c24.4,1.8,47.7,0.9,69.3-4.8c0.8-0.1,0.9-1.2,0.1-1.4l-55.4-12.7c-0.7-0.2-0.7-1.2,0.1-1.3c31.2-0.2,60.9-3.6,89.2-10.4
		c1.2-0.1,1.2-1.9,0.1-2.1l-65.1-11.1c-0.7-0.1-0.7-1.2,0-1.3c25.4,0.5,48.5-1.7,68.7-7c2.2-0.2,2.4-3.3,0.3-3.8
		c-68.1-24.5-140.2-32.3-217.9-16.8c-0.8,0.1-1.5,0.2-2.3,0.4l-100.7,27.8c-4.1,1.1-8.4-0.5-10.8-4c0,0-44.2-63.7-46.7-66.7
		c-0.7-0.8-1.8-1.2-2.9-1.1l-25.4,4.5c-1.1,0.3-1.8,1.2-1.9,2.3l-1.7,68c-0.1,4.7-3.6,8.6-8.2,9.4c0,0-87.5,13.7-89.1,14.2
		C137.5,211,70.6,255.8,21.4,313.5c-3.1,3.1-0.6,8.4,3.8,8c19.5-4.1,37.5-13.5,54.6-25.9c0,0,0.1,0,0.1,0.1l-29.4,39.2
		c-0.6,0.7-0.8,1.7-0.6,2.6h0c0.2,1.3,1.6,1.9,2.7,1.3c22.9-10.7,45.8-23.4,68.8-37.6c0.9-0.5,1.7,0.6,1.1,1.4l-39.5,44
		c-0.7,0.8,0.2,1.9,1.1,1.5c20.9-5,40.7-15.5,59.9-29.3c1.5-0.7,2.9,1.1,1.8,2.4l-29.5,34c-0.3,0.4,0.1,0.9,0.5,0.7
		c22.5-4,42.1-15,60-30c1.4-0.7,2.7,1,1.7,2.2l-22.9,27c-0.5,0.6,0.2,1.5,0.9,1.1c20.7-4.4,39-15,55.6-30.6c0.1,0,0.1,0,0.1,0.1
		l-13.2,25.8c-0.2,0.5,0.2,1,0.7,0.8c10.8-2.2,20.5-5.5,28.9-10.2c1.3-0.5,2.6,0.9,2,2.2l-4.7,9.8c-0.4,0.8,0.5,1.5,1.2,1.1
		c7.9-0.6,16.3-5.8,24.9-13c0.1-0.1,0.3-0.2,0.4-0.2c2.9-1.3,5.4,2.5,3.4,4.8l-6.2,7.1c-0.6,0.6,0.1,1.6,0.9,1.4
		c9.6,0.2,18.5-2.9,26.9-7.9c0.9-0.3,1.8,0.5,1.6,1.5l-1.7,8.2c0,0.2,0.2,0.4,0.3,0.3c8.8-1.6,19.5-6.7,30.7-12.9
		c0.8-0.3,1.5,0.4,1.2,1.2l-4,9.4c-0.1,0.2,0.1,0.3,0.2,0.2c7.5-2.4,15-8,22.4-14.6c0.3-0.2,0.7,0,0.7,0.3l1.2,10
		c0,0.3,0.3,0.4,0.5,0.2c8.5-3.4,15.2-8.5,19.6-15.5c0.6-0.5,1.5,0.2,1.1,0.9l-7.1,14.3l22.5,26.3c1.2,1.4,1.4,3.5,0.4,5.1
		c-23.6,28.5-46.3,61-66.5,105.4c-0.5,0.7,0.5,1.5,1.1,0.9c11.4-5.6,24.5-19.1,38-34.9c1.2-1,2.9,0.2,2.4,1.6
		c-6,17.2-11.4,33.6-12.8,44.7c-0.3,1.1,1.1,1.9,1.9,1c9.3-6,17.5-15.5,24.8-28c0.9-1,4.2-2.7,4.4-1.4c-0.5,12.4,0,23.7,2.8,32.8
		c0.2,1.6,2.4,1.9,3.1,0.5c8.3-7.7,13.8-18.8,17.1-32.7c0.7-1.4,2.7-1.4,3.5,0c6.9,13.5,14.1,25.4,21.7,32.6
		c1.1,1.6,3.6,0.9,3.7-1.1c2.8-8.1,1.8-25.3,0.5-43.3c0-0.2,0.3-0.2,0.3,0c-2.1,4.1,18.1,39.7,22.2,33.4c3.4,1.1-1.2-34-1.8-34.2
		c-0.1-0.3,0.4-0.4,0.5-0.1c6.9,11.4,14.5,21.2,25.6,22.8c2.3,0.3-3.3-25.2-3.3-25.2c-0.2-0.8,0.8-1.3,1.2-0.6
		c5,9.4,10.8,17.3,19.3,20.2c1.9,0.9,3.9-1,3.1-2.9c0.5-5.6-3.4-13.7-8.2-22.4c-0.5-1.4,1.2-2.6,2.3-1.7
		c8.1,8.7,29.5,18.4,29.3,14.9c-1.9-7.2-10-17.8-19.5-29.2c-0.3-0.3,0-0.8,0.4-0.5c12.5,12.4,25.6,21.5,39.4,25.4
		c1,0.6,2.1-0.5,1.5-1.5c-20.9-31-47.2-60.4-79.7-88.1c-1.4-1.1-2.3-2.8-2.4-4.6l-2.3-39c-0.1-1.8,1.5-3.2,3.2-2.9
		c10.3,2.6,20.4,4.3,30.2,4.8c1,0.2,1.6-1.1,0.8-1.8l-9.2-7.3c-0.4-0.3-0.2-1,0.3-0.9c10,1.4,19.3,2,26.7,0.6c0.8,0,1.2-1,0.6-1.5
		l-21.2-15.1c-0.7-0.5-0.2-1.7,0.1-1.6C485.6,306.1,501.8,312.5,506.9,312.9z"/>
	<g>
		<polygon fill="#1A1A1A" points="325.5,104.6 301.3,19.4 332.1,102.4 		"/>
	</g>
	<g>
		<polygon fill="#1A1A1A" points="350.1,100.8 301.2,19.3 356.1,96.9 		"/>
	</g>
	<g id="Слой_4">
		<polygon fill="#FFFFFF" points="301.3,19.5 354.1,99.5 329.2,104.3 		"/>
	</g>
</g>
<g id="Слой_1">
	<g>
		<path fill="#FFFFFF" stroke="#000000" stroke-miterlimit="10" d="M226.5,326.4l-1.7-6.9c0-0.1-0.2-0.6-0.4-1.3
			c-0.2-0.7-0.4-1.5-0.6-2.4c-0.2-0.9-0.4-1.7-0.6-2.4c-0.2-0.8-0.3-1.2-0.4-1.4l-0.7-2.6c-0.1-0.2-0.2-0.6-0.3-1.1
			c-0.2-0.5-0.4-1-0.5-1.6l-0.7-2.1c0-0.1-0.1-0.5-0.1-1.1c-0.1-0.6-0.1-1.4-0.1-2.2c0-0.9-0.1-1.8-0.1-2.7c-0.1-1-0.1-1.9-0.2-2.8
			c0-0.9-0.1-1.6-0.1-2.2c-0.1-0.6-0.1-1-0.1-1.1l-1.3-5.1l-1.7-6.7c-0.1-0.2-0.2-0.6-0.4-1.2s-0.4-1.1-0.7-1.8
			c-0.3-0.6-0.5-1.2-0.7-1.7c-0.2-0.5-0.3-0.9-0.4-1.2l-1.4-2.1l-0.2-0.9c0.1-0.5,0.2-1.1,0.3-1.8c0-0.7,0.1-1.4,0.2-2.2l0.2-2.6
			c0.2-0.3,0.4-0.7,0.6-1.1s0.4-0.9,0.6-1.4c0.2-0.5,0.4-0.9,0.7-1.2c0.2-0.3,0.5-0.5,0.7-0.6l2.2-0.5l3.4-0.8c0.2,0,0.4,0,0.8,0
			c0.3,0,0.6,0.1,0.9,0.1c0.3,0.1,0.6,0.1,1,0.2c0.3,0.2,0.7,0.4,1.1,0.7c0.4,0.3,0.8,0.6,1.3,0.9c0.5,0.3,1,0.7,1.6,1.1
			c0.1,0.2,0.1,0.8,0.2,1.5c0.1,0.8,0.2,1.6,0.3,2.6s0.2,1.8,0.3,2.6c0.1,0.8,0.2,1.3,0.2,1.6l2.1-2.7l1.8-2.4
			c0.2,0,0.4-0.2,0.8-0.4c0.3-0.2,0.6-0.5,0.9-0.8c0.3-0.3,0.7-0.6,1-1.1c0.4-0.3,0.9-0.8,1.5-1.3c0.7-0.5,1.3-1,2-1.4
			c0.7-0.5,1.3-0.8,1.9-1.2c0.5-0.3,0.9-0.5,1.1-0.6l0.9-0.2l1.6-0.4c0.2-0.1,0.6-0.1,1-0.1c0.5,0,0.9,0,1.4,0c0.6,0,1.1,0,1.8,0
			c0.7,0.3,1.4,0.7,2,1c0.5,0.3,1,0.5,1.6,0.8c0.5,0.3,0.9,0.5,1.1,0.7c0.5,0.4,1.1,0.7,1.6,1.1c0.5,0.4,0.8,0.9,1,1.6l0.2,0.9
			l-1.4,2.2l-1.1,1.2l-5.6,1.4l-0.9,0.7c-0.6,0.4-1,0.6-1.4,0.7c-0.3,0.3-0.9,0.8-1.6,1.3c-0.7,0.5-1.5,1-2.3,1.6
			c-0.8,0.5-1.6,1.1-2.3,1.6c-0.7,0.5-1.2,0.9-1.6,1.2l-0.6,1.1c0,0.2,0,0.6-0.3,1.1c-0.2,0.6-0.5,1.2-0.8,1.9
			c-0.3,0.7-0.6,1.4-0.9,2.1c-0.3,0.7-0.5,1.3-0.6,1.7l-1.1,3.1c-0.1,0.3-0.3,0.7-0.4,1.2c-0.1,0.5-0.3,1-0.4,1.6
			c-0.2,0.6-0.3,1.3-0.4,2c0,0.5-0.1,0.9-0.1,1.3c0,0.4,0,0.7,0,1.1c0,0.4,0,0.7,0.1,0.9c0.1,0.2,0.2,0.8,0.3,1.6
			c0.1,0.9,0.3,1.8,0.4,2.8c0.2,1,0.3,2,0.5,3c0.2,1,0.3,1.7,0.4,2.1l0.4,1.8l0.2,0.7c0.3,0.6,0.5,1.2,0.8,1.8
			c0.2,0.5,0.4,1,0.6,1.4c0.2,0.5,0.3,0.8,0.4,1c0,0.2,0.2,0.5,0.3,0.8c0.2,0.3,0.4,0.7,0.6,1c0.3,0.4,0.5,0.9,0.8,1.3l2.3,2.8
			l0.4,1.7l0.4,1.6l-0.3,2c-0.3,0.4-0.7,0.9-1.1,1.3c-0.3,0.3-0.6,0.7-0.9,1.1c-0.3,0.4-0.5,0.7-0.7,0.9l-1.3,1.3
			c-0.2,0.1-0.5,0.2-0.9,0.4c-0.3,0.2-0.7,0.4-1,0.6c-0.4,0.3-0.8,0.5-1.3,0.8c-0.3-0.1-0.6-0.1-1-0.2c-0.3,0-0.5-0.1-0.8-0.1
			c-0.3,0-0.5,0-0.8,0c-0.2,0-0.5,0-0.8,0c-0.4-0.1-0.8-0.2-1.1-0.3c-0.5-0.1-1-0.3-1.5-0.5L226.5,326.4z"/>
		<path fill="#FFFFFF" stroke="#000000" stroke-miterlimit="10" d="M281.4,307.6l-0.6-2.5l0.4-1.9l-0.2-0.8l-0.2-0.9
			c0-0.2-0.2-0.5-0.4-1c-0.2-0.5-0.4-0.9-0.7-1.5s-0.5-1-0.7-1.5c-0.2-0.5-0.3-0.8-0.4-1L277,297l-1.8,0.4c-0.2,0.1-0.5,0.2-0.9,0.4
			c-0.4,0.2-0.7,0.4-1.1,0.6c-0.4,0.2-0.8,0.4-1.1,0.6c-0.4,0.2-0.7,0.3-0.9,0.4c-0.5-0.1-1-0.1-1.6-0.2c-0.4-0.1-0.9-0.2-1.3-0.3
			c-0.4-0.1-0.8-0.2-1.1-0.4l-0.9-0.7l-1.3-1.4l-0.6-2.5l-0.6-2.6c0.1-0.4,0.1-0.7,0.2-1c0-0.3,0.1-0.6,0.1-0.9c0-0.3,0-0.6,0-0.8
			l0.5-1.1l1.5-1.3l0.9-0.2l0.9-0.2l3.8,1l0.9-0.2c0.5-0.1,0.9-0.4,1.2-0.9c0.3-0.5,0.6-1,0.9-1.5l-1.5-5.9l-1.5-6
			c0-0.2-0.2-0.6-0.5-1.4c-0.3-0.7-0.5-1.5-0.8-2.3s-0.6-1.6-0.8-2.3c-0.2-0.7-0.4-1.2-0.5-1.4s-0.3-0.9-0.6-2
			c-0.4-1.1-0.8-2.2-1.2-3.5c-0.4-1.2-0.8-2.4-1.2-3.4c-0.4-1-0.6-1.7-0.6-1.9c-0.3-0.4-0.6-0.9-0.9-1.3c-0.2-0.4-0.4-0.7-0.6-1
			c-0.2-0.3-0.3-0.6-0.3-0.8c-0.1-0.2-0.2-0.5-0.3-0.8s-0.3-0.5-0.5-0.8c-0.2-0.3-0.5-0.6-0.7-0.9l-1-0.5l-5-1.6l-4.2-2.5
			c-0.3-0.6-0.6-1.2-0.9-1.7c-0.2-0.5-0.4-0.9-0.6-1.3c-0.2-0.4-0.3-0.8-0.4-1l-0.2-0.9l0.5-1.8c0.3-0.5,0.6-1.2,0.7-1.9l0.3-1.1
			l3.3-1.6c0.2,0,0.4-0.2,0.7-0.5c0.3-0.3,0.5-0.5,0.8-0.8c0.3-0.3,0.5-0.6,0.7-0.8s0.5-0.4,0.7-0.5l17.2-4.3l16.1-4
			c0.2,0,0.7-0.1,1.5-0.2c0.8-0.1,1.7-0.2,2.6-0.3c1-0.1,1.9-0.3,2.8-0.4c0.9-0.1,1.6-0.2,2-0.3c0.2,0,0.5-0.1,1-0.1
			c0.5,0,1,0,1.6-0.1c0.6,0,1.1,0,1.6-0.1s0.9-0.1,1.1-0.1c0.8,0.2,1.4,0.3,2,0.3c0.5,0.1,1,0.2,1.5,0.2c0.5,0,0.9,0,1.1,0
			c0.7,0.1,1.4,0.2,2.2,0.4c0.8,0.2,1.6,0.4,2.4,0.6s1.6,0.6,2.3,0.9c0.8,0.4,1.4,0.8,1.9,1.3c0.1,0.2,0.2,0.5,0.4,0.7
			c0.2,0.2,0.5,0.5,0.8,0.6c0.3,0.2,0.7,0.5,1.2,0.7l0.2,0.9l0.2,0.9c0.1,0.2,0.1,0.7,0.2,1.3c0,0.6,0.1,1.2,0.2,1.9
			c0.1,0.6,0.1,1.3,0.1,1.8s0.1,1,0.1,1.1c0.1,0.2,0.1,0.7,0.1,1.3s-0.1,1.3-0.1,2c-0.1,0.7-0.1,1.4-0.1,2c0,0.6,0,1,0,1.2
			c-0.3,0.8-0.6,1.5-1,2.3c-0.3,0.6-0.5,1.3-0.7,2c-0.2,0.7-0.4,1.3-0.5,1.8c0,0.2,0,0.5-0.2,0.8c-0.2,0.4-0.4,0.7-0.6,1.1
			c-0.2,0.4-0.4,0.8-0.6,1.2c-0.2,0.4-0.3,0.7-0.2,0.8c-0.2,0.3-0.4,0.8-0.7,1.4c-0.3,0.7-0.6,1.3-1,2c-0.4,0.8-0.8,1.7-1.3,2.6
			c-0.2,0.3-0.5,0.8-1.1,1.6c-0.5,0.7-1.1,1.6-1.7,2.4c-0.6,0.9-1.3,1.8-1.9,2.7c-0.6,0.9-1.1,1.6-1.4,2.1l-2.7,3.3
			c-0.2,0.1-0.5,0.4-0.9,0.9c-0.3,0.5-0.7,1.2-1.1,1.8c-0.4,0.7-0.8,1.3-1.2,1.8c-0.4,0.5-0.7,0.8-0.8,0.9c-0.2,0.1-0.6,0.3-1,0.7
			c-0.4,0.4-0.9,0.8-1.3,1.2s-0.9,0.9-1.3,1.2c-0.4,0.4-0.7,0.6-0.9,0.6l-2.7,3.5c-0.2,0.1-0.6,0.3-1,0.7c-0.4,0.4-0.9,0.8-1.3,1.2
			c-0.4,0.4-0.9,0.9-1.3,1.2c-0.4,0.4-0.7,0.6-0.9,0.6l-0.6,1.1l-0.5,1.9l0.2,0.8c0.2,0.9,0.5,2,1,3.4c0.5,1.4,0.9,2.8,1.3,4.2
			c0.5,1.6,1.1,3.2,1.8,5l1.5,2.3c0.1,0.5,0.4,1.2,0.9,2c0.2,0.5,0.5,0.9,0.7,1.3l0.4,1.6l0.4,1.8l-1.9,3.1
			c-0.2,0.3-0.5,0.7-0.8,1.2c-0.4,0.5-0.7,1-1.1,1.5c-0.4,0.6-0.9,1.2-1.5,1.8l-1.7,0.4l-1.8,0.4c-0.6-0.2-1.1-0.4-1.5-0.6
			c-0.4-0.2-0.7-0.3-1.1-0.6c-0.3-0.2-0.5-0.5-0.6-0.7c-0.2-0.3-0.5-0.6-0.7-0.9c-0.2-0.2-0.3-0.5-0.5-0.7c-0.2-0.3-0.3-0.5-0.3-0.7
			c-0.1-0.2-0.2-0.5-0.4-0.9c-0.2-0.4-0.4-0.7-0.6-1.1c-0.3-0.4-0.5-0.9-0.8-1.3L281.4,307.6z M277.1,250.2l1.9,7.6
			c0.1,0.4,0.4,1.3,0.8,2.6c0.4,1.3,0.9,2.7,1.3,4.2c0.5,1.5,0.9,2.9,1.3,4.2c0.4,1.3,0.7,2.1,0.8,2.6c0.1,0.2,0.2,0.6,0.4,1
			c0.2,0.4,0.4,0.9,0.6,1.3c0.3,0.5,0.6,1,0.9,1.7l2,0.3c3-2.5,5.7-5.3,8.2-8.4c2.5-3.1,4.9-6.3,7.3-9.7l3.9-6.4
			c0.1-0.2,0.4-0.6,0.6-1.1c0.3-0.5,0.6-1,0.8-1.5c0.3-0.5,0.5-1,0.7-1.4s0.2-0.8,0.2-1l0.2-2.7c0-0.2,0-0.6,0.3-1.3
			s0.4-1.4,0.7-2.1c0.2-0.7,0.5-1.4,0.7-2.1c0.2-0.7,0.3-1.1,0.2-1.3l-0.2-0.7l-0.4-1.8l-0.9-0.7l-3-0.9c-0.3-0.2-0.6-0.3-1.1-0.4
			c-0.4-0.1-0.8-0.2-1.3-0.3c-0.5-0.1-1-0.2-1.5-0.2c-0.2,0.1-0.7,0.1-1.3,0.2c-0.6,0-1.2,0.1-1.9,0.2c-0.7,0.1-1.3,0.1-1.9,0.2
			c-0.6,0-1,0.1-1.2,0.1l-6.9,1.7l-6.8,1.7c-0.2,0.1-0.5,0.2-0.9,0.4c-0.4,0.2-0.7,0.4-1.1,0.6c-0.4,0.2-0.8,0.4-1.1,0.6
			c-0.4,0.2-0.6,0.3-0.8,0.4l-1.6,1.3l-1.3,2.1l-0.2,2.9L277.1,250.2z"/>
		<path fill="#FFFFFF" stroke="#000000" stroke-miterlimit="10" d="M412.1,264.6c0.5-0.6,0.9-0.9,1.3-1c0.4-0.1,0.8,0,1.2,0.5
			c0.4,0.4,0.7,1,0.9,1.8c0.3,1.2,0.3,2.7,0,4.4c-0.3,1.7-1.1,3.5-2.4,5.2c-0.6,0.6-1.7,1.5-3.1,2.9c-1.4,1.3-3,2.8-4.7,4.3
			c-1.7,1.5-3.3,3-4.9,4.4c-1.6,1.4-2.9,2.4-3.9,3c-0.4,0.1-0.9,0.4-1.7,1c-0.7,0.6-1.5,1.2-2.3,1.8c-0.8,0.6-1.6,1.2-2.3,1.8
			c-0.7,0.6-1.3,0.9-1.6,1c-0.4,0.1-0.9,0.3-1.5,0.6c-0.6,0.3-1.3,0.7-2,1c-0.7,0.3-1.4,0.7-2,1s-1.1,0.5-1.4,0.6
			c-2.1,0.7-4.2,1.3-6.1,2c-2,0.7-3.9,1.2-5.8,1.7c-1.2,0.3-2.4,0.5-3.5,0.5c-1.2,0-2.3,0-3.4,0c-0.9-0.1-1.7-0.1-2.5-0.1
			c-0.7,0-1.3-0.1-2-0.1c-0.7,0-1.2,0-1.6,0.1c-0.4,0.1-0.8,0.1-1.3,0.1c-0.5,0-1-0.1-1.6-0.1c-0.6-0.1-1.2-0.2-1.8-0.3l-3.3-0.8
			l-4.9-1.9c-0.9-1-1.8-2-2.8-3.1c-1-1-1.9-2-2.8-3c-0.9-0.9-1.6-1.8-2.2-2.5c-0.6-0.7-0.9-1.3-1-1.7c-0.5-1-0.9-2.1-1.3-3.1
			c-0.3-1-0.6-2-0.8-2.9c-0.5-2-0.9-3.9-1.1-5.7c-0.3-1.8-0.6-3.8-1.1-5.8c-0.1-0.4-0.2-1.1-0.3-2.1c-0.1-1-0.1-2.1-0.1-3.2
			c0-1.1,0.1-2.2,0.2-3.3c0.1-1,0.3-1.8,0.6-2.2c0.2-0.8,0.3-1.9,0.5-3.4c0.2-1.5,0.4-3,0.6-4.5c0.2-1.5,0.4-2.9,0.6-4.2
			c0.2-1.3,0.4-2.1,0.7-2.6c0.4-1,0.7-1.9,1.1-2.8c0.3-0.8,0.6-1.6,0.9-2.3c0.3-0.8,0.6-1.4,0.9-1.9c0.6-0.7,1.1-1.3,1.5-1.9
			c0.4-0.6,0.7-1.2,1-1.8c0.3-0.6,0.6-1.1,0.8-1.7c0.3-0.6,0.6-1.2,0.9-1.8c0.4-0.7,0.9-1.3,1.3-1.8c0.4-0.5,0.8-1,1.2-1.4
			c0.4-0.4,0.8-0.7,1.2-0.8c0.5-0.5,1.1-1.1,1.8-1.8c0.7-0.8,1.5-1.6,2.3-2.4c0.8-0.8,1.7-1.7,2.6-2.7c0.9-0.9,1.8-1.9,2.7-2.8
			c2.1-2.1,4.2-4.3,6.6-6.6c1.3-0.7,2.6-1.4,3.7-2.1c1-0.6,2-1.2,3.1-1.9c1-0.7,1.8-1.3,2.5-1.8c0.4-0.1,0.8-0.3,1.2-0.5
			c0.4-0.3,0.9-0.5,1.3-0.9c0.5-0.3,1-0.7,1.5-1.2c0.4-0.1,1-0.3,1.9-0.7s1.8-0.8,2.8-1.2c1.1-0.5,2.4-1,3.6-1.7
			c0.4-0.1,0.9-0.2,1.6-0.2c0.7,0,1.4,0,2.2,0c0.8,0,1.5,0,2.2,0s1.2-0.1,1.5-0.1c1,0.4,1.9,0.7,2.7,0.9c0.8,0.2,1.5,0.4,2.2,0.5
			s1.3,0.1,1.6,0s0.9,0,1.4,0.1c0.6,0.2,1.1,0.4,1.7,0.7c0.6,0.3,1.3,0.6,1.9,1c0.5,0.3,0.9,0.6,1.4,1c0.5,0.4,0.9,0.8,1.3,1.2
			c0.5,0.4,0.9,0.9,1.3,1.4c0.7,1.6,1.5,3.3,2.4,5c0.9,1.7,1.5,3.4,1.9,5.1c0.2,0.7,0.3,1.3,0.4,2c0.1,0.7,0.1,1.3,0,1.9
			c0,0.4,0,0.8-0.1,1.4c0,0.5-0.1,1.1-0.1,1.7c0,0.6,0,1.2,0,1.7c0,0.6,0.1,1,0.2,1.4c-0.4,1.8-0.8,3.4-1.1,5
			c-0.3,1.3-0.6,2.7-0.9,4.1c-0.3,1.4-0.5,2.5-0.7,3.3l-0.8,3.3c-0.3,0.4-0.6,1-0.9,1.8c-0.3,0.7-0.6,1.5-1,2.2
			c-0.3,0.9-0.7,1.8-1.1,2.8c-0.2,0.5-0.7,1.2-1.3,2.3c-0.6,1-1.2,2.1-1.9,3.3c-0.7,1.1-1.3,2.2-1.9,3.3c-0.6,1-1.1,1.8-1.4,2.2
			c-0.3,0.5-0.7,1.1-1.4,2c-0.6,0.8-1.3,1.7-1.9,2.6c-0.8,1-1.6,2-2.4,3.1c-0.3,0.2-0.7,0.4-1.3,0.6c-0.6,0.2-1.2,0.4-1.9,0.6
			c-0.9,0.2-1.8,0.3-2.8,0.2l-3.1-0.7l-5.3-3.4l-1.3,1.9c-0.4,0.1-0.8,0.5-1.3,1.3c-0.5,0.8-1,1.6-1.5,2.5c-0.5,0.9-1.1,1.7-1.6,2.5
			c-0.5,0.8-0.9,1.2-1.3,1.3l-2.6,2.2c-0.2,0.4-0.7,0.6-1.4,0.8c-0.4,0.1-0.8,0.2-1.4,0.2c-0.5,0.1-1,0.1-1.5,0l-3.3-0.7
			c-0.9-0.6-1.8-1.2-2.6-1.7c-0.8-0.6-1.3-1.2-1.5-2c-0.1-0.4-0.3-0.8-0.5-1.2c-0.3-0.4-0.5-0.9-0.9-1.3c-0.3-0.5-0.7-1-1.1-1.5
			l-1.1-4.4c0.1-0.6,0.2-1.3,0.3-1.8c0.1-0.5,0.1-1,0.1-1.6c0-0.5,0-1-0.1-1.3l0.8-3.3c-0.1-0.3,0.1-0.8,0.4-1.4
			c0.4-0.6,0.8-1.3,1.3-2c0.5-0.7,1-1.4,1.5-2.1c0.5-0.7,0.9-1.3,1.2-1.7c0.3-0.1,0.8-0.4,1.3-1.1c0.5-0.6,1.1-1.4,1.6-2.2
			c0.6-0.8,1.1-1.6,1.6-2.4c0.5-0.8,0.9-1.5,1.2-1.9c0.3-0.5,0.6-0.9,1.1-1.4c0.4-0.5,0.8-0.9,1.2-1.3c0.4-0.5,0.9-0.9,1.3-1.3
			c0.3-0.1,0.7-0.3,1.2-0.5c0.5-0.3,1-0.6,1.5-0.9c0.5-0.3,1-0.6,1.5-0.9s0.9-0.4,1.3-0.5c0.6-0.3,1.2-0.6,1.8-0.9
			c0.6-0.3,1.2-0.5,1.8-0.6c0.6-0.1,1.1-0.2,1.7-0.2c0.6,0,1.2,0,1.9-0.1l1.8,1.1l2.2,2.6c0.5,0.6,0.8,1.3,0.9,2
			c0.2,0.7,0.2,1.4,0.2,2.1c-0.1,0.7-0.1,1.4-0.2,2.2c0,0.8,0,1.6,0,2.3c0.1,0.6,0.1,1.3,0.2,1.9c0.1,0.6,0.1,1.1,0.2,1.4l-0.7,3.3
			l0.7,2.9c0.2,0.3,0.4,0.6,0.8,1c0.4,0.4,0.8,0.6,1.4,0.4c0.4-0.1,0.8-0.3,1.1-0.7c0.4-0.4,0.7-1,1.1-1.8c0.7-0.9,1.3-1.8,1.9-2.7
			c0.5-0.8,1-1.6,1.5-2.4c0.5-0.8,0.8-1.6,0.9-2.2c0.1-0.5,0.4-1.2,0.8-2.1c0.4-0.9,0.9-1.9,1.3-2.9c0.6-1.1,1.2-2.3,1.9-3.6
			c-0.1-0.4-0.1-1,0-1.8c0.1-0.8,0.2-1.8,0.4-2.8c0.2-1,0.3-2.1,0.6-3.1c0.2-1.1,0.4-2,0.6-2.8c-0.1-0.4-0.1-0.8-0.1-1.3
			c0-0.5,0.1-1,0.1-1.6c0.1-0.6,0.2-1.2,0.4-1.8c0.1-0.9,0-1.8-0.2-2.6c-0.3-1.2-0.8-2.4-1.6-3.6c-0.7-1.2-1.4-2.3-1.9-3.3l-1.8-1.1
			c-0.7-0.4-1.3-0.7-1.9-1c-0.5-0.3-1.1-0.5-1.6-0.7c-0.6-0.2-1-0.2-1.4-0.1c-0.4,0.1-0.8,0.1-1.4,0.1c-0.5,0-1.1-0.1-1.6-0.1
			c-0.6-0.1-1.2-0.2-1.8-0.3l-4.2,1c-0.8,0.5-1.5,0.9-2.3,1.3c-0.6,0.4-1.2,0.7-1.8,1c-0.6,0.3-1.1,0.5-1.5,0.6s-0.8,0.3-1.3,0.6
			c-0.5,0.3-0.9,0.6-1.3,0.9c-0.5,0.3-1,0.7-1.5,1.1c-0.3,0.1-0.8,0.3-1.4,0.7c-0.6,0.4-1.2,0.8-1.8,1.3c-0.6,0.5-1.3,1-1.8,1.6
			c-0.6,0.6-1,1.1-1.2,1.6c-0.2,0.2-0.4,0.4-0.6,0.5c-0.2,0.2-0.4,0.3-0.6,0.5c-2.3,2-4.6,4-6.7,6.1c-2.1,2.1-3.9,4.3-5.4,6.8
			l-5.5,9.2c-0.4,0.7-0.7,1.4-1,2c-0.3,0.6-0.5,1.1-0.6,1.7c-0.1,0.5-0.2,1-0.1,1.4c-0.9,2.6-1.5,5.1-1.8,7.4
			c-0.3,2.3-0.6,4.7-0.8,7.1c0.1,0.4,0.1,0.8,0.1,1.4c0,0.5-0.1,1.1-0.2,1.6c-0.1,0.6-0.2,1.2-0.3,1.8c0.4,1.6,0.7,3.3,1,4.9
			s0.6,3.3,1,4.9c0.4,1.6,0.9,3.2,1.6,4.8c0.4,0.5,0.8,1,1.1,1.5c0.3,0.4,0.6,0.9,0.9,1.3s0.5,0.8,0.6,1.2c0.1,0.4,0.3,0.8,0.7,1.2
			c0.4,0.4,0.9,0.8,1.4,1.2c0.6,0.4,1.2,0.8,1.9,1.3c1,0.4,1.9,0.7,2.7,0.9c0.7,0.2,1.4,0.4,2.1,0.5c0.7,0.1,1.2,0.2,1.5,0.1
			c0.4-0.1,0.9-0.1,1.6-0.1s1.4,0,2.1,0c0.8,0,1.7,0,2.5,0.1c1.6-0.4,3.2-0.7,4.8-0.9c1.6-0.2,3.1-0.5,4.8-0.9
			c0.8-0.2,1.6-0.4,2.4-0.7c0.8-0.3,1.7-0.7,2.6-1.1c0.3-0.1,0.9-0.4,1.6-0.7c0.8-0.4,1.6-0.8,2.4-1.2c0.9-0.4,1.7-0.8,2.5-1.1
			c0.8-0.3,1.4-0.5,1.7-0.6c0.5-0.4,0.9-0.8,1.4-1.1c0.4-0.3,0.8-0.6,1.2-0.8c0.4-0.3,0.9-0.4,1.2-0.5s1-0.5,1.9-1.2
			c0.9-0.7,1.8-1.5,2.7-2.3c1-0.8,1.9-1.6,2.7-2.3s1.4-1.1,1.8-1.2l6.6-4.7l2.1-3.5c0.2,0,0.4-0.2,0.8-0.5s0.7-0.6,1.1-1
			c0.4-0.4,0.8-0.8,1.2-1.3C411.4,265.5,411.8,265.1,412.1,264.6z M362.5,264.6c0.1,0.4,0.4,0.8,1.1,1.3c0.6,0.5,1.3,0.8,2,0.7
			l3.4-3.8l2.2-4.4c-0.1-0.4,0-1,0.2-1.6c0.2-0.6,0.5-1.3,0.9-1.9c0.4-0.7,0.9-1.4,1.4-2.2c0.3-0.9,0.3-1.9,0-3
			c-0.2-0.7-0.5-1.3-0.9-1.8c-0.2-0.1-0.3-0.1-0.5-0.1c-0.2,0-0.3,0-0.5,0c-0.4,0.1-0.8,0.3-1.2,0.6c-0.4,0.3-0.7,0.4-0.9,0.5
			c-1.1,1.4-2.1,2.8-3,4.2c-0.8,1.2-1.5,2.4-2.2,3.7c-0.7,1.3-1.1,2.4-1.3,3.4L362.5,264.6z"/>
		<path fill="#FFFFFF" stroke="#000000" stroke-miterlimit="10" d="M480.7,277.7c-0.3-0.1-0.7-0.5-1.3-1.1c-0.6-0.6-1.1-1.2-1.7-1.9
			c-0.6-0.7-1.1-1.3-1.5-1.9c-0.5-0.6-0.7-1-0.8-1.3l-0.7-2.6l-0.7-2.6l1.1-2.9c0-0.7,0-1.4,0-2c0-0.5-0.1-1.1-0.1-1.6
			c0-0.5,0-0.9-0.1-1.2l-0.2-0.8l-0.2-0.9c-0.4-0.6-0.7-1.2-1-1.7c-0.2-0.5-0.4-1-0.7-1.4s-0.3-0.8-0.4-1c-0.2-0.7-0.6-1.9-1.2-3.7
			c-0.6-1.8-1.3-3.7-2.1-5.7c-0.7-2-1.4-3.9-2-5.7c-0.6-1.8-1-3-1.2-3.7l-2-0.4l-0.7,0.2l-1.1,0.3c-0.9,0.2-2.1,0.6-3.6,1.2
			c-1.5,0.6-3.1,1.2-4.7,1.8c-1.6,0.6-3,1.2-4.4,1.7s-2.2,0.8-2.6,1c-0.4,0.3-0.9,0.5-1.3,0.8c-0.4,0.2-0.7,0.4-1.1,0.6
			c-0.4,0.2-0.7,0.3-0.9,0.4l-2.7,0.4c-0.2,0.1-0.6,0.3-1.2,0.6c-0.5,0.3-1.1,0.7-1.7,1.1c-0.6,0.4-1.2,0.7-1.7,1
			c-0.5,0.3-0.9,0.5-1.2,0.6c-0.2,0.1-0.5,0.2-0.9,0.5c-0.3,0.3-0.7,0.6-1.1,0.9s-0.8,0.6-1.1,0.9c-0.4,0.3-0.6,0.5-0.8,0.5
			c-0.2,0.1-0.6,0.2-1.1,0.5c-0.5,0.3-1,0.4-1.7,0.3c-0.7-0.1-1.4-0.4-2.2-1c-0.8-0.6-1.6-1.8-2.4-3.6l-1.2-4l-1.1-4.4l0.6-1.1
			l1.6-1.3l2.4-1.5c0.2-0.1,0.5-0.2,0.7-0.4c0.2-0.2,0.4-0.5,0.7-0.8c0.2-0.3,0.5-0.7,0.8-1.2c0.2-0.2,0.5-0.7,0.8-1.4
			s0.7-1.5,1.1-2.3c0.4-0.8,0.7-1.6,1.1-2.5c0.3-0.8,0.6-1.5,0.7-2l1.4-5.2l2-4.1c0.3-0.8,0.6-1.8,1.1-3.1c0.5-1.3,1-2.6,1.5-3.9
			c0.5-1.3,0.9-2.4,1.2-3.4c0.3-1,0.5-1.6,0.4-1.9c0-0.2,0-0.7,0.2-1.6s0.4-1.8,0.6-2.8s0.4-1.9,0.6-2.8c0.2-0.9,0.2-1.4,0.2-1.6
			l1.4-2.2c0.2,0,0.5-0.3,1.1-0.9c0.5-0.5,1.1-1.1,1.6-1.7c0.6-0.6,1.1-1.2,1.6-1.7c0.5-0.5,0.8-0.8,1-0.9l0.8-1.1
			c0-0.2,0-0.6,0.3-1.2c0.2-0.6,0.5-1.2,0.8-1.9c0.3-0.6,0.5-1.3,0.8-1.9c0.2-0.6,0.3-1,0.3-1.2l0.7-1.1c0.4-0.1,1-0.4,1.6-0.9
			c0.7-0.5,1.2-0.8,1.6-0.9l1.7-0.4l0.9-0.2c0.4,0.1,0.7,0.1,1.1,0.2c0.3,0,0.6,0,0.9,0.1s0.6,0,0.8-0.1c0.2-0.1,0.6,0,1,0.1
			c0.4,0.1,0.9,0.2,1.3,0.4c0.5,0.1,1.1,0.3,1.6,0.5l1.1,0.6l1.3,1.6c0.1,0.4,0.4,1,0.9,1.6s0.8,1.2,0.9,1.7l0.2,0.9l0.4,1.8
			l-0.1,3.7l1.9,7.7c0.1,0.2,0.1,0.8,0.3,1.7s0.3,1.8,0.4,2.9c0.2,1,0.3,2,0.4,2.9c0.1,0.9,0.2,1.4,0.2,1.6l0.8,3.4l0.9,3.5
			c0.1,0.3,0.2,0.7,0.4,1.1s0.4,1,0.7,1.5c0.2,0.5,0.4,1,0.7,1.5c0.2,0.5,0.4,0.8,0.4,1l2,0.4l2.4-1.5l2.6-0.7l1.7-0.4
			c0.5,0.1,1,0.2,1.5,0.2c0.4,0.1,0.9,0.2,1.3,0.3c0.5,0.1,0.8,0.2,1.1,0.4c0.2,0,0.4,0,0.7,0.1c0.3,0.1,0.5,0.3,0.8,0.5
			c0.2,0.2,0.5,0.4,0.8,0.7l0.4,1.8l0.4,1.7c-0.2,0.3-0.5,0.8-0.9,1.6c-0.4,0.7-0.9,1.5-1.4,2.3c-0.5,0.8-1,1.6-1.4,2.3
			c-0.4,0.7-0.8,1.2-1,1.5l-1.6,1.4c-0.2,0-0.5,0.2-0.9,0.5c-0.4,0.3-0.9,0.6-1.4,1c-0.5,0.3-0.9,0.7-1.4,1c-0.5,0.3-0.8,0.5-1,0.5
			l-0.7,1.2l2.4,9.7l2.6,10.4c0.1,0.2,0.2,0.7,0.5,1.5c0.3,0.7,0.6,1.5,0.9,2.4c0.3,0.9,0.6,1.6,0.9,2.4c0.3,0.7,0.4,1.2,0.5,1.4
			c0.1,0.2,0.2,0.6,0.5,1.1c0.3,0.5,0.6,1,1,1.4c0.3,0.5,0.7,0.9,1,1.4c0.3,0.4,0.5,0.7,0.5,0.9l0.4,1.8l0.7,2.6l-0.4,1.9
			c0.1,0.2,0,0.5-0.2,0.9c-0.2,0.4-0.5,0.7-0.7,1.1c-0.3,0.4-0.6,0.9-1,1.3c-0.4,0.5-0.9,0.9-1.3,1.3c-0.3,0.3-0.7,0.6-1,0.9
			c-0.3,0.3-0.6,0.4-0.8,0.5c-0.2,0.1-0.5,0.2-0.8,0.3c-0.3,0.2-0.5,0.3-0.8,0.5c-0.3,0.2-0.6,0.5-0.9,0.7l-0.9,0.2l-0.9,0.2
			L480.7,277.7z M443.6,225.5l1,0.7l4.5-1.1l3.4-0.8c0.4-0.1,1.1-0.3,2-0.6c0.9-0.3,1.8-0.7,2.8-1c1-0.3,1.9-0.7,2.8-1
			c0.9-0.3,1.5-0.5,1.9-0.6l0.7-1.1l0.4-2l-4.5-18.3l-1.1-0.6l-0.9,0.2c-0.2,0.1-0.6,0.3-1,0.7c-0.4,0.4-0.8,0.9-1.3,1.4
			c-0.5,0.5-0.9,1-1.2,1.6c-0.4,0.5-0.6,0.9-0.7,1.1l-1.5,2.3c-0.4,0.5-0.8,1.3-1.2,2.2c-0.5,0.9-0.9,1.8-1.4,2.8
			c-0.6,1-1.1,2.2-1.7,3.4l-1.7,5.2l-1.1,2.9l-0.3,2L443.6,225.5z"/>
		<path fill="#FFFFFF" stroke="#000000" stroke-miterlimit="10" d="M543.4,232.7c-0.1,0.2-0.3,0.6-0.6,1.1c-0.3,0.5-0.5,1-0.8,1.5
			c-0.3,0.5-0.6,1-0.8,1.5c-0.2,0.5-0.4,0.8-0.5,1.1l-1,2.6c0.1,0.2,0,0.6-0.2,1c-0.2,0.5-0.4,0.9-0.7,1.4c-0.3,0.5-0.5,1-0.8,1.5
			c-0.3,0.5-0.5,0.9-0.6,1.1l-0.6,1.1c-0.3,0.5-0.7,1.1-1.2,1.8c-0.5,0.7-1.1,1.4-1.6,2c-0.6,0.7-1.3,1.4-2,2.2l-3,1.8l-3.3,0.4
			l-3.2,0.2c-0.4-0.1-0.7-0.2-0.9-0.3c-0.6-0.2-0.9-0.4-1-0.7c-0.1-0.2-0.2-0.5-0.4-0.7c-0.2-0.2-0.5-0.5-0.8-0.6
			c-0.3-0.2-0.6-0.5-1-0.7c-0.2-0.3-0.5-0.6-0.7-0.9c-0.2-0.3-0.3-0.5-0.5-0.8c-0.2-0.3-0.3-0.5-0.3-0.8c-0.1-0.2-0.2-0.5-0.4-0.8
			c-0.2-0.3-0.4-0.6-0.6-1c-0.2-0.4-0.5-0.8-0.7-1.2c-0.1-0.3-0.3-0.8-0.6-1.6c-0.3-0.8-0.7-1.7-1.1-2.7c-0.4-1-0.9-2.1-1.4-3.3
			c-0.5-1.1-0.9-2.2-1.4-3.3c-0.4-1-0.8-1.9-1.1-2.7c-0.3-0.8-0.5-1.3-0.6-1.5c-0.3-0.6-0.6-1.2-0.9-1.7c-0.5-1-0.8-1.7-0.9-2.3
			l-0.8-3.4c0-0.2-0.2-0.5-0.3-0.8c-0.2-0.3-0.3-0.7-0.5-1.1c-0.2-0.4-0.4-0.8-0.5-1.1c-0.2-0.4-0.3-0.7-0.3-0.9l-0.6-2.5
			c-0.1-0.4-0.4-0.9-0.8-1.5c-0.5-0.6-0.7-1.1-0.8-1.5c0-0.2-0.3-0.7-0.8-1.4c-0.5-0.7-1-1.5-1.5-2.4c-0.5-0.9-1.1-1.6-1.5-2.4
			c-0.5-0.7-0.8-1.2-0.8-1.4l-0.2-0.9l-0.4-1.6l-0.1-1.7c0.1-0.2,0.4-0.6,0.6-1.1c0.3-0.5,0.6-1,0.8-1.6c0.3-0.5,0.5-1.1,0.8-1.5
			c0.3-0.5,0.5-0.8,0.6-1.1c0.3-0.4,0.8-0.9,1.3-1.4c0.2-0.3,0.5-0.5,0.7-0.7l1.6-0.4l1.6-0.4c0.6,0.3,1.1,0.6,1.7,1
			c0.5,0.3,0.9,0.6,1.3,0.8c0.4,0.3,0.8,0.5,1,0.7c0.6,0.4,1.2,0.8,1.9,1.4c0.7,0.6,1.1,1,1.2,1.4c0.3,0.2,0.6,0.4,0.9,0.7
			c0.3,0.3,0.6,0.6,0.8,1c0.3,0.4,0.6,0.8,0.9,1.2l-0.1,3.5c0.1,0.2,0.1,0.6,0.1,1.1c0,0.5,0,1,0.1,1.5c0,0.6,0,1.2,0,1.8l0.8,3.4
			l0.8,3.2c0.1,0.2,0.2,0.8,0.5,1.5c0.3,0.8,0.6,1.7,1,2.6s0.7,1.9,1,2.8c0.3,0.9,0.5,1.5,0.6,2c0.1,0.4,0.3,1,0.6,1.6
			c0.3,0.6,0.5,1.3,0.8,1.9c0.3,0.6,0.5,1.2,0.8,1.8c0.2,0.6,0.4,1,0.4,1.1l1.4,2.1c0,0.2,0.2,0.4,0.5,0.7c0.3,0.3,0.6,0.5,0.9,0.7
			c0.4,0.3,0.8,0.6,1.4,0.9l0.7-0.2l1.6-0.4l2.1-1.4c0.3-0.6,0.7-1.3,1.2-2.1c0.5-0.8,0.9-1.4,1.2-1.9l1-2.9l1.7-4
			c0.1-0.3,0.3-0.8,0.4-1.5c0.1-0.7,0.2-1.4,0.3-2.2c0.1-0.8,0.1-1.5,0.1-2.2c0-0.7,0-1.1-0.1-1.4c0-0.2-0.1-0.6-0.3-1.3
			c-0.1-0.6-0.3-1.4-0.4-2.1c-0.1-0.8-0.3-1.5-0.4-2.2s-0.2-1.1-0.3-1.4c-0.1-0.6-0.1-1.2-0.1-1.8c0-0.5,0-1-0.1-1.4
			c0-0.5,0-0.8-0.1-1l-0.6-2.5l-0.4-1.6l-1.4-2.2c0-0.2-0.2-0.5-0.3-0.8s-0.3-0.7-0.5-1c-0.2-0.4-0.5-0.8-0.7-1.2l-0.6-2.5l-0.4-1.8
			c-0.1-0.5-0.2-1.2-0.1-2c0-0.5,0-0.9,0-1.4c0-0.2,0-0.5,0.2-0.9c0.2-0.4,0.4-0.9,0.7-1.3c0.3-0.4,0.5-0.8,0.8-1.2
			c0.3-0.4,0.5-0.6,0.7-0.6c0.2-0.1,0.5-0.2,0.9-0.5s0.7-0.5,1-0.9c0.3-0.3,0.7-0.6,1-0.9c0.3-0.3,0.6-0.5,0.9-0.5l2.2-0.5l1.6-0.4
			c0.2,0,0.5,0,0.8,0.1c0.3,0.1,0.7,0.2,1,0.4c0.4,0.1,0.7,0.3,1,0.4c0.3,0.1,0.6,0.1,0.8,0.1l1.3,1.4l0.8,3.1l0.9,3.5
			c0.1,0.2,0.1,0.6,0,1.1c-0.1,0.5-0.1,1-0.2,1.6c-0.1,0.5-0.1,1.1-0.2,1.6c0,0.5,0,0.9,0,1.1l4.1,16.5l0.6,2.5l0.6,2.4
			c0.1,0.4,0.3,1,0.5,1.7c0.3,0.7,0.5,1.5,0.8,2.2c0.3,0.8,0.6,1.5,0.8,2.1c0.2,0.7,0.4,1.1,0.4,1.3c0.1,0.2,0.2,0.6,0.6,1.1
			c0.3,0.5,0.7,1,1,1.5c0.4,0.5,0.7,1.1,1,1.6c0.3,0.5,0.5,0.9,0.6,1.1l1.1,1.4c0.3,0.2,0.6,0.5,1.2,1c0.5,0.5,1.1,0.9,1.6,1.4
			c0.6,0.5,1.1,0.9,1.6,1.3c0.5,0.4,0.9,0.7,1.2,0.8c0.4,0.3,0.7,0.5,0.9,0.8c0.2,0.2,0.5,0.4,0.7,0.7c0.2,0.2,0.4,0.5,0.4,0.7
			l1.3,1.6l0.2,0.9c0.1,0.2,0,0.6-0.1,1.1c-0.1,0.5-0.3,1-0.5,1.6c-0.2,0.6-0.3,1.1-0.5,1.6c-0.1,0.5-0.2,0.9-0.1,1.1l-1.3,2.1
			l-1.3,1.2l-0.9,0.2c-0.1,0-0.3,0.1-0.3,0.1c-0.1,0-0.2,0.1-0.3,0.1c-0.1,0.1-0.2,0.1-0.2,0.1c-0.5,0-1-0.1-1.5-0.1
			c-0.4,0-0.8,0-1.2,0c-0.4,0-0.7,0-0.9,0.1c-0.2,0.1-0.5,0.1-0.8,0c-0.3,0-0.6-0.1-0.8-0.1c-0.3-0.1-0.6-0.1-1-0.2l-1.2-0.7
			c-0.3-0.2-0.6-0.4-0.9-0.6c-0.3-0.2-0.6-0.4-0.8-0.6c0-0.1-0.2-0.3-0.4-0.5c-0.3-0.2-0.5-0.4-0.8-0.6c-0.3-0.2-0.7-0.5-1.1-0.7
			c0-0.2-0.3-0.7-0.7-1.6s-0.9-1.9-1.5-2.9c-0.5-1.1-1-2-1.4-2.9c-0.4-0.9-0.7-1.4-0.8-1.7c-0.1-0.2-0.2-0.5-0.3-0.8
			c-0.1-0.3-0.3-0.5-0.5-0.8c-0.2-0.3-0.4-0.6-0.6-0.9l-0.2-0.7L543.4,232.7z"/>
	</g>
</g>
<g id="Слой_2" display="none">
</g>
</svg>
